<?xml version="1.0" standalone="no"?><svg xmlns:xlink="http://www.w3.org/1999/xlink" xmlns="http://www.w3.org/2000/svg" viewBox="0 0 1000 562.4989735420191" preserveAspectRatio="xMaxYMax slice"><g transform="scale(0.8211663847328746)"><rect x="0" y="0" width="1293.888888888889" height="685" fill="#ffffff"/><path d="M 989.44 152.22 A 76.11 76.11 0 0 1  1065.55 76.11 L 989.44 152.22 A 76.11 76.11 0 0 0 1065.55 76.11" fill="#498b5d"/><rect x="456.6666666666667" y="152.22222222222223" width="76.11111111111111" height="76.11111111111111" fill="#ffffff"/><path d="M 456.67 228.34 A 38.06 38.06 0 0 1  494.73 190.28 L 456.67 228.34 A 38.06 38.06 0 0 0 494.73 190.28" fill="#98a9f2"/><rect x="532.7777777777778" y="152.22222222222223" width="76.11111111111111" height="76.11111111111111" fill="#ffffff"/><path d="M 989.44 152.22 A 76.11 76.11 0 0 1  1065.55 228.32999999999998 L 989.44 152.22 A 76.11 76.11 0 0 0 1065.55 228.32999999999998" fill="#4c8d61"/><path d="M 152.22 304.44 A 76.11 76.11 0 0 1  228.32999999999998 228.33 L 152.22 304.44 A 76.11 76.11 0 0 0 228.32999999999998 228.33" fill="#e3e8fb"/><rect x="456.6666666666667" y="228.33333333333334" width="76.11111111111111" height="76.11111111111111" fill="#ffffff"/><path d="M 456.67 228.33 A 38.06 38.06 0 0 1  494.73 266.39 L 456.67 228.33 A 38.06 38.06 0 0 0 494.73 266.39" fill="#adbbf4"/><path d="M 494.72 228.33 A 38.06 38.06 0 0 1  532.78 266.39 L 494.72 228.33 A 38.06 38.06 0 0 0 532.78 266.39" fill="#9eaff2"/><path d="M 494.72 266.39 A 38.06 38.06 0 0 1  532.78 304.45 L 494.72 266.39 A 38.06 38.06 0 0 0 532.78 304.45" fill="#fefeff"/><rect x="685" y="228.33333333333334" width="76.11111111111111" height="76.11111111111111" fill="#ffffff"/><path d="M 685 228.33 A 38.06 38.06 0 0 1  723.06 266.39 L 685 228.33 A 38.06 38.06 0 0 0 723.06 266.39" fill="#7aab89"/><path d="M 685 304.45 A 38.06 38.06 0 0 1  723.06 266.39 L 685 304.45 A 38.06 38.06 0 0 0 723.06 266.39" fill="#bdd5c4"/><path d="M 723.06 266.39 A 38.06 38.06 0 0 1  761.1199999999999 304.45 L 723.06 266.39 A 38.06 38.06 0 0 0 761.1199999999999 304.45" fill="#6ea37f"/><path d="M 837.22 304.44 A 76.11 76.11 0 0 1  913.33 228.33 L 837.22 304.44 A 76.11 76.11 0 0 0 913.33 228.33" fill="#4161e6"/><path d="M 989.44 304.44 A 76.11 76.11 0 0 1  1065.55 228.33 L 989.44 304.44 A 76.11 76.11 0 0 0 1065.55 228.33" fill="#8ab598"/><path d="M 1065.56 228.33 A 76.11 76.11 0 0 1  1141.6699999999998 304.44 L 1065.56 228.33 A 76.11 76.11 0 0 0 1141.6699999999998 304.44" fill="#509064"/><path d="M 0 380.55 A 76.11 76.11 0 0 1  76.11 304.44 L 0 380.55 A 76.11 76.11 0 0 0 76.11 304.44" fill="#bad3c2"/><path d="M 76.11 380.55 A 76.11 76.11 0 0 1  152.22 304.44 L 76.11 380.55 A 76.11 76.11 0 0 0 152.22 304.44" fill="#d0d8f9"/><path d="M 152.22 380.55 A 76.11 76.11 0 0 1  228.32999999999998 304.44 L 152.22 380.55 A 76.11 76.11 0 0 0 228.32999999999998 304.44" fill="#617bea"/><rect x="228.33333333333334" y="304.44444444444446" width="76.11111111111111" height="76.11111111111111" fill="#ffffff"/><path d="M 228.33 380.56 A 38.06 38.06 0 0 1  266.39 342.5 L 228.33 380.56 A 38.06 38.06 0 0 0 266.39 342.5" fill="#549267"/><path d="M 304.44 380.55 A 76.11 76.11 0 0 1  380.55 304.44 L 304.44 380.55 A 76.11 76.11 0 0 0 380.55 304.44" fill="#e2ede6"/><path d="M 456.67 380.55 A 76.11 76.11 0 0 1  532.78 304.44 L 456.67 380.55 A 76.11 76.11 0 0 0 532.78 304.44" fill="#5f9971"/><path d="M 608.89 304.44 A 76.11 76.11 0 0 1  685 380.55 L 608.89 304.44 A 76.11 76.11 0 0 0 685 380.55" fill="#afccb8"/><rect x="761.1111111111111" y="304.44444444444446" width="76.11111111111111" height="76.11111111111111" fill="#ffffff"/><path d="M 761.11 342.5 A 38.06 38.06 0 0 1  799.1700000000001 380.56 L 761.11 342.5 A 38.06 38.06 0 0 0 799.1700000000001 380.56" fill="#869aef"/><path d="M 799.17 380.56 A 38.06 38.06 0 0 1  837.23 342.5 L 799.17 380.56 A 38.06 38.06 0 0 0 837.23 342.5" fill="#9eaff2"/><path d="M 913.33 304.44 A 76.11 76.11 0 0 1  989.44 380.55 L 913.33 304.44 A 76.11 76.11 0 0 0 989.44 380.55" fill="#7bab8a"/><path d="M 989.44 380.55 A 76.11 76.11 0 0 1  1065.55 304.44 L 989.44 380.55 A 76.11 76.11 0 0 0 1065.55 304.44" fill="#e8ecfc"/><rect x="1141.6666666666667" y="304.44444444444446" width="76.11111111111111" height="76.11111111111111" fill="#ffffff"/><path d="M 1141.67 304.44 A 38.06 38.06 0 0 1  1179.73 342.5 L 1141.67 304.44 A 38.06 38.06 0 0 0 1179.73 342.5" fill="#488b5d"/><path d="M 1141.67 342.5 A 38.06 38.06 0 0 1  1179.73 380.56 L 1141.67 342.5 A 38.06 38.06 0 0 0 1179.73 380.56" fill="#d1d9f9"/><rect x="1217.7777777777778" y="304.44444444444446" width="76.11111111111111" height="76.11111111111111" fill="#ffffff"/><path d="M 1255.83 304.44 A 38.06 38.06 0 0 1  1293.8899999999999 342.5 L 1255.83 304.44 A 38.06 38.06 0 0 0 1293.8899999999999 342.5" fill="#5975e9"/><rect x="76.11111111111111" y="380.55555555555554" width="76.11111111111111" height="76.11111111111111" fill="#ffffff"/><path d="M 76.11 380.56 A 38.06 38.06 0 0 1  114.17 418.62 L 76.11 380.56 A 38.06 38.06 0 0 0 114.17 418.62" fill="#385ae5"/><path d="M 114.17 456.67 A 38.06 38.06 0 0 1  152.23000000000002 418.61 L 114.17 456.67 A 38.06 38.06 0 0 0 152.23000000000002 418.61" fill="#bdd5c4"/><path d="M 152.22 456.67 A 76.11 76.11 0 0 1  228.32999999999998 380.56 L 152.22 456.67 A 76.11 76.11 0 0 0 228.32999999999998 380.56" fill="#d5dcf9"/><rect x="304.44444444444446" y="380.55555555555554" width="76.11111111111111" height="76.11111111111111" fill="#ffffff"/><path d="M 304.44 418.62 A 38.06 38.06 0 0 1  342.5 380.56 L 304.44 418.62 A 38.06 38.06 0 0 0 342.5 380.56" fill="#7088ec"/><path d="M 342.5 418.62 A 38.06 38.06 0 0 1  380.56 380.56 L 342.5 418.62 A 38.06 38.06 0 0 0 380.56 380.56" fill="#3254e4"/><path d="M 304.44 418.61 A 38.06 38.06 0 0 1  342.5 456.67 L 304.44 418.61 A 38.06 38.06 0 0 0 342.5 456.67" fill="#3a5be5"/><rect x="532.7777777777778" y="380.55555555555554" width="76.11111111111111" height="76.11111111111111" fill="#ffffff"/><path d="M 570.83 418.61 A 38.06 38.06 0 0 1  608.8900000000001 456.67 L 570.83 418.61 A 38.06 38.06 0 0 0 608.8900000000001 456.67" fill="#dbe8df"/><path d="M 685 456.67 A 76.11 76.11 0 0 1  761.11 380.56 L 685 456.67 A 76.11 76.11 0 0 0 761.11 380.56" fill="#7e93ee"/><rect x="761.1111111111111" y="380.55555555555554" width="76.11111111111111" height="76.11111111111111" fill="#ffffff"/><path d="M 761.11 380.56 A 38.06 38.06 0 0 1  799.1700000000001 418.62 L 761.11 380.56 A 38.06 38.06 0 0 0 799.1700000000001 418.62" fill="#8fb79b"/><path d="M 761.11 456.67 A 38.06 38.06 0 0 1  799.1700000000001 418.61 L 761.11 456.67 A 38.06 38.06 0 0 0 799.1700000000001 418.61" fill="#4b69e8"/><path d="M 837.22 456.67 A 76.11 76.11 0 0 1  913.33 380.56 L 837.22 456.67 A 76.11 76.11 0 0 0 913.33 380.56" fill="#b7d1bf"/><path d="M 913.33 456.67 A 76.11 76.11 0 0 1  989.44 380.56 L 913.33 456.67 A 76.11 76.11 0 0 0 989.44 380.56" fill="#8196ef"/><path d="M 1065.56 380.56 A 76.11 76.11 0 0 1  1141.6699999999998 456.67 L 1065.56 380.56 A 76.11 76.11 0 0 0 1141.6699999999998 456.67" fill="#284ce3"/><rect x="1141.6666666666667" y="380.55555555555554" width="76.11111111111111" height="76.11111111111111" fill="#ffffff"/><path d="M 1141.67 418.62 A 38.06 38.06 0 0 1  1179.73 380.56 L 1141.67 418.62 A 38.06 38.06 0 0 0 1179.73 380.56" fill="#1f45e2"/><path d="M 1179.72 418.62 A 38.06 38.06 0 0 1  1217.78 380.56 L 1179.72 418.62 A 38.06 38.06 0 0 0 1217.78 380.56" fill="#c2cdf7"/><path d="M 1141.67 456.67 A 38.06 38.06 0 0 1  1179.73 418.61 L 1141.67 456.67 A 38.06 38.06 0 0 0 1179.73 418.61" fill="#4d6be8"/><path d="M 1179.72 456.67 A 38.06 38.06 0 0 1  1217.78 418.61 L 1179.72 456.67 A 38.06 38.06 0 0 0 1217.78 418.61" fill="#d3daf9"/><rect x="1217.7777777777778" y="380.55555555555554" width="76.11111111111111" height="76.11111111111111" fill="#ffffff"/><path d="M 1217.78 418.62 A 38.06 38.06 0 0 1  1255.84 380.56 L 1217.78 418.62 A 38.06 38.06 0 0 0 1255.84 380.56" fill="#7088ec"/><path d="M 1217.78 456.67 A 38.06 38.06 0 0 1  1255.84 418.61 L 1217.78 456.67 A 38.06 38.06 0 0 0 1255.84 418.61" fill="#90b89d"/><path d="M 1255.83 456.67 A 38.06 38.06 0 0 1  1293.8899999999999 418.61 L 1255.83 456.67 A 38.06 38.06 0 0 0 1293.8899999999999 418.61" fill="#accab5"/><path d="M 0 532.78 A 76.11 76.11 0 0 1  76.11 456.67 L 0 532.78 A 76.11 76.11 0 0 0 76.11 456.67" fill="#b0ccb9"/><rect x="152.22222222222223" y="456.6666666666667" width="76.11111111111111" height="76.11111111111111" fill="#ffffff"/><path d="M 152.22 456.67 A 38.06 38.06 0 0 1  190.28 494.73 L 152.22 456.67 A 38.06 38.06 0 0 0 190.28 494.73" fill="#b5d0bd"/><path d="M 190.28 494.73 A 38.06 38.06 0 0 1  228.34 456.67 L 190.28 494.73 A 38.06 38.06 0 0 0 228.34 456.67" fill="#75a785"/><path d="M 190.28 494.72 A 38.06 38.06 0 0 1  228.34 532.78 L 190.28 494.72 A 38.06 38.06 0 0 0 228.34 532.78" fill="#d8e6dc"/><rect x="228.33333333333334" y="456.6666666666667" width="76.11111111111111" height="76.11111111111111" fill="#ffffff"/><path d="M 266.39 456.67 A 38.06 38.06 0 0 1  304.45 494.73 L 266.39 456.67 A 38.06 38.06 0 0 0 304.45 494.73" fill="#e9edfc"/><path d="M 228.33 532.78 A 38.06 38.06 0 0 1  266.39 494.72 L 228.33 532.78 A 38.06 38.06 0 0 0 266.39 494.72" fill="#657feb"/><path d="M 266.39 532.78 A 38.06 38.06 0 0 1  304.45 494.72 L 266.39 532.78 A 38.06 38.06 0 0 0 304.45 494.72" fill="#4c6ae8"/><path d="M 304.44 532.78 A 76.11 76.11 0 0 1  380.55 456.67 L 304.44 532.78 A 76.11 76.11 0 0 0 380.55 456.67" fill="#3557e5"/><rect x="380.55555555555554" y="456.6666666666667" width="76.11111111111111" height="76.11111111111111" fill="#ffffff"/><path d="M 418.61 494.73 A 38.06 38.06 0 0 1  456.67 456.67 L 418.61 494.73 A 38.06 38.06 0 0 0 456.67 456.67" fill="#a7c7b1"/><path d="M 418.61 532.78 A 38.06 38.06 0 0 1  456.67 494.72 L 418.61 532.78 A 38.06 38.06 0 0 0 456.67 494.72" fill="#9cc0a8"/><path d="M 456.67 456.67 A 76.11 76.11 0 0 1  532.78 532.78 L 456.67 456.67 A 76.11 76.11 0 0 0 532.78 532.78" fill="#bdd5c5"/><rect x="532.7777777777778" y="456.6666666666667" width="76.11111111111111" height="76.11111111111111" fill="#ffffff"/><path d="M 532.78 456.67 A 38.06 38.06 0 0 1  570.8399999999999 494.73 L 532.78 456.67 A 38.06 38.06 0 0 0 570.8399999999999 494.73" fill="#58956b"/><path d="M 570.83 456.67 A 38.06 38.06 0 0 1  608.8900000000001 494.73 L 570.83 456.67 A 38.06 38.06 0 0 0 608.8900000000001 494.73" fill="#aecbb7"/><path d="M 532.78 494.72 A 38.06 38.06 0 0 1  570.8399999999999 532.78 L 532.78 494.72 A 38.06 38.06 0 0 0 570.8399999999999 532.78" fill="#a2c4ad"/><path d="M 570.83 494.72 A 38.06 38.06 0 0 1  608.8900000000001 532.78 L 570.83 494.72 A 38.06 38.06 0 0 0 608.8900000000001 532.78" fill="#4161e6"/><rect x="608.8888888888889" y="456.6666666666667" width="76.11111111111111" height="76.11111111111111" fill="#ffffff"/><path d="M 646.94 494.73 A 38.06 38.06 0 0 1  685 456.67 L 646.94 494.73 A 38.06 38.06 0 0 0 685 456.67" fill="#ffffff"/><path d="M 646.94 532.78 A 38.06 38.06 0 0 1  685 494.72 L 646.94 532.78 A 38.06 38.06 0 0 0 685 494.72" fill="#a8c8b2"/><rect x="685" y="456.6666666666667" width="76.11111111111111" height="76.11111111111111" fill="#ffffff"/><path d="M 723.06 456.67 A 38.06 38.06 0 0 1  761.1199999999999 494.73 L 723.06 456.67 A 38.06 38.06 0 0 0 761.1199999999999 494.73" fill="#aac9b4"/><path d="M 685 532.78 A 38.06 38.06 0 0 1  723.06 494.72 L 685 532.78 A 38.06 38.06 0 0 0 723.06 494.72" fill="#f2f7f4"/><path d="M 723.06 532.78 A 38.06 38.06 0 0 1  761.1199999999999 494.72 L 723.06 532.78 A 38.06 38.06 0 0 0 761.1199999999999 494.72" fill="#738bed"/><path d="M 761.11 532.78 A 76.11 76.11 0 0 1  837.22 456.67 L 761.11 532.78 A 76.11 76.11 0 0 0 837.22 456.67" fill="#f5f6fe"/><path d="M 837.22 456.67 A 76.11 76.11 0 0 1  913.33 532.78 L 837.22 456.67 A 76.11 76.11 0 0 0 913.33 532.78" fill="#6c85ec"/><rect x="913.3333333333334" y="456.6666666666667" width="76.11111111111111" height="76.11111111111111" fill="#ffffff"/><path d="M 913.33 456.67 A 38.06 38.06 0 0 1  951.3900000000001 494.73 L 913.33 456.67 A 38.06 38.06 0 0 0 951.3900000000001 494.73" fill="#3c5de6"/><path d="M 951.39 456.67 A 38.06 38.06 0 0 1  989.45 494.73 L 951.39 456.67 A 38.06 38.06 0 0 0 989.45 494.73" fill="#d3e3d8"/><path d="M 913.33 532.78 A 38.06 38.06 0 0 1  951.3900000000001 494.72 L 913.33 532.78 A 38.06 38.06 0 0 0 951.3900000000001 494.72" fill="#a1c3ac"/><path d="M 951.39 532.78 A 38.06 38.06 0 0 1  989.45 494.72 L 951.39 532.78 A 38.06 38.06 0 0 0 989.45 494.72" fill="#dce2fa"/><path d="M 1065.56 456.67 A 76.11 76.11 0 0 1  1141.6699999999998 532.78 L 1065.56 456.67 A 76.11 76.11 0 0 0 1141.6699999999998 532.78" fill="#3b5ce6"/><path d="M 1141.67 532.78 A 76.11 76.11 0 0 1  1217.78 456.67 L 1141.67 532.78 A 76.11 76.11 0 0 0 1217.78 456.67" fill="#5471e9"/><rect x="0" y="532.7777777777778" width="76.11111111111111" height="76.11111111111111" fill="#ffffff"/><path d="M 38.06 532.78 A 38.06 38.06 0 0 1  76.12 570.8399999999999 L 38.06 532.78 A 38.06 38.06 0 0 0 76.12 570.8399999999999" fill="#a8c8b2"/><path d="M 0 570.83 A 38.06 38.06 0 0 1  38.06 608.8900000000001 L 0 570.83 A 38.06 38.06 0 0 0 38.06 608.8900000000001" fill="#506de8"/><path d="M 38.06 608.8900000000001 A 38.06 38.06 0 0 1  76.12 570.83 L 38.06 608.8900000000001 A 38.06 38.06 0 0 0 76.12 570.83" fill="#2a4ee3"/><rect x="76.11111111111111" y="532.7777777777778" width="76.11111111111111" height="76.11111111111111" fill="#ffffff"/><path d="M 76.11 532.78 A 38.06 38.06 0 0 1  114.17 570.8399999999999 L 76.11 532.78 A 38.06 38.06 0 0 0 114.17 570.8399999999999" fill="#a6c6b0"/><path d="M 114.17 570.8399999999999 A 38.06 38.06 0 0 1  152.23000000000002 532.78 L 114.17 570.8399999999999 A 38.06 38.06 0 0 0 152.23000000000002 532.78" fill="#70a480"/><path d="M 76.11 570.83 A 38.06 38.06 0 0 1  114.17 608.8900000000001 L 76.11 570.83 A 38.06 38.06 0 0 0 114.17 608.8900000000001" fill="#c6dbcc"/><rect x="152.22222222222223" y="532.7777777777778" width="76.11111111111111" height="76.11111111111111" fill="#ffffff"/><path d="M 152.22 570.8399999999999 A 38.06 38.06 0 0 1  190.28 532.78 L 152.22 570.8399999999999 A 38.06 38.06 0 0 0 190.28 532.78" fill="#e3ede7"/><path d="M 152.22 608.8900000000001 A 38.06 38.06 0 0 1  190.28 570.83 L 152.22 608.8900000000001 A 38.06 38.06 0 0 0 190.28 570.83" fill="#eef4f0"/><path d="M 190.28 570.83 A 38.06 38.06 0 0 1  228.34 608.8900000000001 L 190.28 570.83 A 38.06 38.06 0 0 0 228.34 608.8900000000001" fill="#4363e7"/><rect x="228.33333333333334" y="532.7777777777778" width="76.11111111111111" height="76.11111111111111" fill="#ffffff"/><path d="M 228.33 532.78 A 38.06 38.06 0 0 1  266.39 570.8399999999999 L 228.33 532.78 A 38.06 38.06 0 0 0 266.39 570.8399999999999" fill="#8fa2f0"/><path d="M 266.39 532.78 A 38.06 38.06 0 0 1  304.45 570.8399999999999 L 266.39 532.78 A 38.06 38.06 0 0 0 304.45 570.8399999999999" fill="#689f7a"/><path d="M 228.33 570.83 A 38.06 38.06 0 0 1  266.39 608.8900000000001 L 228.33 570.83 A 38.06 38.06 0 0 0 266.39 608.8900000000001" fill="#abcab5"/><path d="M 266.39 570.83 A 38.06 38.06 0 0 1  304.45 608.8900000000001 L 266.39 570.83 A 38.06 38.06 0 0 0 304.45 608.8900000000001" fill="#5a76ea"/><rect x="456.6666666666667" y="532.7777777777778" width="76.11111111111111" height="76.11111111111111" fill="#ffffff"/><path d="M 456.67 570.8399999999999 A 38.06 38.06 0 0 1  494.73 532.78 L 456.67 570.8399999999999 A 38.06 38.06 0 0 0 494.73 532.78" fill="#97bda3"/><path d="M 494.72 570.8399999999999 A 38.06 38.06 0 0 1  532.78 532.78 L 494.72 570.8399999999999 A 38.06 38.06 0 0 0 532.78 532.78" fill="#9faff2"/><path d="M 456.67 570.83 A 38.06 38.06 0 0 1  494.73 608.8900000000001 L 456.67 570.83 A 38.06 38.06 0 0 0 494.73 608.8900000000001" fill="#bbc7f6"/><path d="M 494.72 570.83 A 38.06 38.06 0 0 1  532.78 608.8900000000001 L 494.72 570.83 A 38.06 38.06 0 0 0 532.78 608.8900000000001" fill="#95bba1"/><path d="M 532.78 532.78 A 76.11 76.11 0 0 1  608.89 608.89 L 532.78 532.78 A 76.11 76.11 0 0 0 608.89 608.89" fill="#e7ebfc"/><rect x="608.8888888888889" y="532.7777777777778" width="76.11111111111111" height="76.11111111111111" fill="#ffffff"/><path d="M 608.89 532.78 A 38.06 38.06 0 0 1  646.95 570.8399999999999 L 608.89 532.78 A 38.06 38.06 0 0 0 646.95 570.8399999999999" fill="#2e51e4"/><path d="M 608.89 608.8900000000001 A 38.06 38.06 0 0 1  646.95 570.83 L 608.89 608.8900000000001 A 38.06 38.06 0 0 0 646.95 570.83" fill="#eff2fd"/><path d="M 646.94 570.83 A 38.06 38.06 0 0 1  685 608.8900000000001 L 646.94 570.83 A 38.06 38.06 0 0 0 685 608.8900000000001" fill="#bdd5c5"/><path d="M 685 532.78 A 76.11 76.11 0 0 1  761.11 608.89 L 685 532.78 A 76.11 76.11 0 0 0 761.11 608.89" fill="#e5eee8"/><path d="M 761.11 532.78 A 76.11 76.11 0 0 1  837.22 608.89 L 761.11 532.78 A 76.11 76.11 0 0 0 837.22 608.89" fill="#f7faf8"/><path d="M 913.33 532.78 A 76.11 76.11 0 0 1  989.44 608.89 L 913.33 532.78 A 76.11 76.11 0 0 0 989.44 608.89" fill="#a4b4f3"/><path d="M 989.44 532.78 A 76.11 76.11 0 0 1  1065.55 608.89 L 989.44 532.78 A 76.11 76.11 0 0 0 1065.55 608.89" fill="#d7defa"/><rect x="1065.5555555555557" y="532.7777777777778" width="76.11111111111111" height="76.11111111111111" fill="#ffffff"/><path d="M 1065.56 532.78 A 38.06 38.06 0 0 1  1103.62 570.8399999999999 L 1065.56 532.78 A 38.06 38.06 0 0 0 1103.62 570.8399999999999" fill="#86b294"/><path d="M 1103.61 570.8399999999999 A 38.06 38.06 0 0 1  1141.6699999999998 532.78 L 1103.61 570.8399999999999 A 38.06 38.06 0 0 0 1141.6699999999998 532.78" fill="#4f6de8"/><path d="M 1065.56 570.83 A 38.06 38.06 0 0 1  1103.62 608.8900000000001 L 1065.56 570.83 A 38.06 38.06 0 0 0 1103.62 608.8900000000001" fill="#f1f3fd"/><path d="M 1103.61 570.83 A 38.06 38.06 0 0 1  1141.6699999999998 608.8900000000001 L 1103.61 570.83 A 38.06 38.06 0 0 0 1141.6699999999998 608.8900000000001" fill="#58956b"/><rect x="1141.6666666666667" y="532.7777777777778" width="76.11111111111111" height="76.11111111111111" fill="#ffffff"/><path d="M 1141.67 532.78 A 38.06 38.06 0 0 1  1179.73 570.8399999999999 L 1141.67 532.78 A 38.06 38.06 0 0 0 1179.73 570.8399999999999" fill="#abbaf4"/><path d="M 1179.72 532.78 A 38.06 38.06 0 0 1  1217.78 570.8399999999999 L 1179.72 532.78 A 38.06 38.06 0 0 0 1217.78 570.8399999999999" fill="#516ee8"/><path d="M 1141.67 570.83 A 38.06 38.06 0 0 1  1179.73 608.8900000000001 L 1141.67 570.83 A 38.06 38.06 0 0 0 1179.73 608.8900000000001" fill="#5f9a72"/><path d="M 1179.72 570.83 A 38.06 38.06 0 0 1  1217.78 608.8900000000001 L 1179.72 570.83 A 38.06 38.06 0 0 0 1217.78 608.8900000000001" fill="#95bca1"/><path d="M 1217.78 608.89 A 76.11 76.11 0 0 1  1293.8899999999999 532.78 L 1217.78 608.89 A 76.11 76.11 0 0 0 1293.8899999999999 532.78" fill="#b7d2c0"/><path d="M 0 608.89 A 76.11 76.11 0 0 1  76.11 685 L 0 608.89 A 76.11 76.11 0 0 0 76.11 685" fill="#2449e3"/><path d="M 76.11 608.89 A 76.11 76.11 0 0 1  152.22 685 L 76.11 608.89 A 76.11 76.11 0 0 0 152.22 685" fill="#b7d1bf"/><rect x="152.22222222222223" y="608.8888888888889" width="76.11111111111111" height="76.11111111111111" fill="#ffffff"/><path d="M 152.22 646.95 A 38.06 38.06 0 0 1  190.28 608.89 L 152.22 646.95 A 38.06 38.06 0 0 0 190.28 608.89" fill="#d6e5db"/><path d="M 190.28 646.95 A 38.06 38.06 0 0 1  228.34 608.89 L 190.28 646.95 A 38.06 38.06 0 0 0 228.34 608.89" fill="#adcbb6"/><path d="M 152.22 685 A 38.06 38.06 0 0 1  190.28 646.94 L 152.22 685 A 38.06 38.06 0 0 0 190.28 646.94" fill="#93a5f1"/><path d="M 190.28 646.94 A 38.06 38.06 0 0 1  228.34 685 L 190.28 646.94 A 38.06 38.06 0 0 0 228.34 685" fill="#e4eee7"/><path d="M 228.33 685 A 76.11 76.11 0 0 1  304.44 608.89 L 228.33 685 A 76.11 76.11 0 0 0 304.44 608.89" fill="#788fed"/><rect x="304.44444444444446" y="608.8888888888889" width="76.11111111111111" height="76.11111111111111" fill="#ffffff"/><path d="M 304.44 646.95 A 38.06 38.06 0 0 1  342.5 608.89 L 304.44 646.95 A 38.06 38.06 0 0 0 342.5 608.89" fill="#a2b2f3"/><path d="M 342.5 646.95 A 38.06 38.06 0 0 1  380.56 608.89 L 342.5 646.95 A 38.06 38.06 0 0 0 380.56 608.89" fill="#e5eafc"/><path d="M 304.44 685 A 38.06 38.06 0 0 1  342.5 646.94 L 304.44 685 A 38.06 38.06 0 0 0 342.5 646.94" fill="#b5d0be"/><path d="M 342.5 685 A 38.06 38.06 0 0 1  380.56 646.94 L 342.5 685 A 38.06 38.06 0 0 0 380.56 646.94" fill="#cee0d3"/><path d="M 380.56 685 A 76.11 76.11 0 0 1  456.67 608.89 L 380.56 685 A 76.11 76.11 0 0 0 456.67 608.89" fill="#657feb"/><path d="M 456.67 685 A 76.11 76.11 0 0 1  532.78 608.89 L 456.67 685 A 76.11 76.11 0 0 0 532.78 608.89" fill="#c5cff7"/><rect x="532.7777777777778" y="608.8888888888889" width="76.11111111111111" height="76.11111111111111" fill="#ffffff"/><path d="M 532.78 646.95 A 38.06 38.06 0 0 1  570.8399999999999 608.89 L 532.78 646.95 A 38.06 38.06 0 0 0 570.8399999999999 608.89" fill="#a3b2f3"/><path d="M 570.83 608.89 A 38.06 38.06 0 0 1  608.8900000000001 646.95 L 570.83 608.89 A 38.06 38.06 0 0 0 608.8900000000001 646.95" fill="#abb9f4"/><path d="M 532.78 685 A 38.06 38.06 0 0 1  570.8399999999999 646.94 L 532.78 685 A 38.06 38.06 0 0 0 570.8399999999999 646.94" fill="#adbbf4"/><path d="M 570.83 646.94 A 38.06 38.06 0 0 1  608.8900000000001 685 L 570.83 646.94 A 38.06 38.06 0 0 0 608.8900000000001 685" fill="#fafcfa"/><rect x="608.8888888888889" y="608.8888888888889" width="76.11111111111111" height="76.11111111111111" fill="#ffffff"/><path d="M 608.89 646.95 A 38.06 38.06 0 0 1  646.95 608.89 L 608.89 646.95 A 38.06 38.06 0 0 0 646.95 608.89" fill="#609a72"/><path d="M 646.94 646.95 A 38.06 38.06 0 0 1  685 608.89 L 646.94 646.95 A 38.06 38.06 0 0 0 685 608.89" fill="#eff5f1"/><path d="M 608.89 646.94 A 38.06 38.06 0 0 1  646.95 685 L 608.89 646.94 A 38.06 38.06 0 0 0 646.95 685" fill="#f8fbf9"/><path d="M 646.94 685 A 38.06 38.06 0 0 1  685 646.94 L 646.94 685 A 38.06 38.06 0 0 0 685 646.94" fill="#7ead8d"/><path d="M 685 685 A 76.11 76.11 0 0 1  761.11 608.89 L 685 685 A 76.11 76.11 0 0 0 761.11 608.89" fill="#dbe8df"/><path d="M 761.11 608.89 A 76.11 76.11 0 0 1  837.22 685 L 761.11 608.89 A 76.11 76.11 0 0 0 837.22 685" fill="#5672e9"/><rect x="837.2222222222223" y="608.8888888888889" width="76.11111111111111" height="76.11111111111111" fill="#ffffff"/><path d="M 837.22 608.89 A 38.06 38.06 0 0 1  875.28 646.95 L 837.22 608.89 A 38.06 38.06 0 0 0 875.28 646.95" fill="#488b5d"/><path d="M 875.28 646.95 A 38.06 38.06 0 0 1  913.3399999999999 608.89 L 875.28 646.95 A 38.06 38.06 0 0 0 913.3399999999999 608.89" fill="#a6b5f3"/><path d="M 837.22 685 A 38.06 38.06 0 0 1  875.28 646.94 L 837.22 685 A 38.06 38.06 0 0 0 875.28 646.94" fill="#899df0"/><path d="M 875.28 685 A 38.06 38.06 0 0 1  913.3399999999999 646.94 L 875.28 685 A 38.06 38.06 0 0 0 913.3399999999999 646.94" fill="#88b395"/><rect x="913.3333333333334" y="608.8888888888889" width="76.11111111111111" height="76.11111111111111" fill="#ffffff"/><path d="M 913.33 646.95 A 38.06 38.06 0 0 1  951.3900000000001 608.89 L 913.33 646.95 A 38.06 38.06 0 0 0 951.3900000000001 608.89" fill="#d9e0fa"/><path d="M 951.39 646.95 A 38.06 38.06 0 0 1  989.45 608.89 L 951.39 646.95 A 38.06 38.06 0 0 0 989.45 608.89" fill="#d0d8f9"/><path d="M 913.33 685 A 38.06 38.06 0 0 1  951.3900000000001 646.94 L 913.33 685 A 38.06 38.06 0 0 0 951.3900000000001 646.94" fill="#79aa89"/><path d="M 951.39 685 A 38.06 38.06 0 0 1  989.45 646.94 L 951.39 685 A 38.06 38.06 0 0 0 989.45 646.94" fill="#bfcaf7"/><path d="M 989.44 608.89 A 76.11 76.11 0 0 1  1065.55 685 L 989.44 608.89 A 76.11 76.11 0 0 0 1065.55 685" fill="#647eeb"/><rect x="1065.5555555555557" y="608.8888888888889" width="76.11111111111111" height="76.11111111111111" fill="#ffffff"/><path d="M 1065.56 646.95 A 38.06 38.06 0 0 1  1103.62 608.89 L 1065.56 646.95 A 38.06 38.06 0 0 0 1103.62 608.89" fill="#91b99e"/><path d="M 1103.61 646.95 A 38.06 38.06 0 0 1  1141.6699999999998 608.89 L 1103.61 646.95 A 38.06 38.06 0 0 0 1141.6699999999998 608.89" fill="#5975e9"/><path d="M 1065.56 685 A 38.06 38.06 0 0 1  1103.62 646.94 L 1065.56 685 A 38.06 38.06 0 0 0 1103.62 646.94" fill="#5c78ea"/><path d="M 1103.61 646.94 A 38.06 38.06 0 0 1  1141.6699999999998 685 L 1103.61 646.94 A 38.06 38.06 0 0 0 1141.6699999999998 685" fill="#dbe1fa"/><rect x="1141.6666666666667" y="608.8888888888889" width="76.11111111111111" height="76.11111111111111" fill="#ffffff"/><path d="M 1141.67 646.95 A 38.06 38.06 0 0 1  1179.73 608.89 L 1141.67 646.95 A 38.06 38.06 0 0 0 1179.73 608.89" fill="#e9edfc"/><path d="M 1179.72 646.95 A 38.06 38.06 0 0 1  1217.78 608.89 L 1179.72 646.95 A 38.06 38.06 0 0 0 1217.78 608.89" fill="#8297ef"/><path d="M 1141.67 646.94 A 38.06 38.06 0 0 1  1179.73 685 L 1141.67 646.94 A 38.06 38.06 0 0 0 1179.73 685" fill="#c1d7c8"/><path d="M 1179.72 685 A 38.06 38.06 0 0 1  1217.78 646.94 L 1179.72 685 A 38.06 38.06 0 0 0 1217.78 646.94" fill="#8196ef"/><rect x="1217.7777777777778" y="608.8888888888889" width="76.11111111111111" height="76.11111111111111" fill="#ffffff"/><path d="M 1217.78 646.95 A 38.06 38.06 0 0 1  1255.84 608.89 L 1217.78 646.95 A 38.06 38.06 0 0 0 1255.84 608.89" fill="#1c42e2"/><path d="M 1255.83 608.89 A 38.06 38.06 0 0 1  1293.8899999999999 646.95 L 1255.83 608.89 A 38.06 38.06 0 0 0 1293.8899999999999 646.95" fill="#2c50e4"/><path d="M 1217.78 685 A 38.06 38.06 0 0 1  1255.84 646.94 L 1217.78 685 A 38.06 38.06 0 0 0 1255.84 646.94" fill="#2348e2"/><path d="M 1255.83 685 A 38.06 38.06 0 0 1  1293.8899999999999 646.94 L 1255.83 685 A 38.06 38.06 0 0 0 1293.8899999999999 646.94" fill="#e1ece4"/></g></svg>